<?xml version="1.0" ?><svg viewBox="0 0 512 512" xmlns="http://www.w3.org/2000/svg"><defs><style>.cls-1{fill:#202d40;}.cls-2{fill:#7f8c8d;}.cls-3{fill:#c0402b;}</style></defs><title/><g id="Google"><g id="Gaccount"><path class="cls-1" d="M432,75.33,256,29,80,75.33S36,404.24,256,483C476.05,404.24,432,75.33,432,75.33Z"/><path class="cls-1" d="M256,29V483C36,404.24,80,75.33,80,75.33Z"/><circle class="cls-2" cx="256" cy="244.42" r="125.08"/><path class="cls-3" d="M256,141.16a48.74,48.74,0,1,1-48.75,48.73A48.74,48.74,0,0,1,256,141.16Z"/><path class="cls-3" d="M352.82,323.6a125.06,125.06,0,0,1-193.64,0,103.77,103.77,0,0,1,193.64,0Z"/></g></g></svg>